<?xml version="1.0" encoding="utf-8"?>
<!-- Generator: Adobe Illustrator 25.2.1, SVG Export Plug-In . SVG Version: 6.00 Build 0)  -->
<svg version="1.1" id="레이어_1" xmlns="http://www.w3.org/2000/svg" xmlns:xlink="http://www.w3.org/1999/xlink" x="0px"
	 y="0px" viewBox="0 0 114 114" style="enable-background:new 0 0 114 114;" xml:space="preserve">
<style type="text/css">
	.st0{fill:#FFFFFF;}
	.st1{fill:#FFF1C5;stroke:#F77272;stroke-width:2;stroke-miterlimit:10;}
</style>
<g>
	<circle class="st0" cx="56" cy="57" r="33"/>
	<path class="st1" d="M102.4,74.3l3.6-21l-7.3-3.8c-0.4-2.2-0.8-4.4-1.4-6.7l4.8-6.7L89.7,18.8l-7.9,2.4c-1.8-1.4-3.6-2.4-5.6-3.6
		l-1.2-8.1L54,5.9l-3.8,7.3c-2.2,0.4-4.4,0.8-6.7,1.4l-6.7-4.8L19.5,22l2.4,7.9c-1.4,1.8-2.6,3.6-3.6,5.6l-8.1,1.2l-3.6,21l7.3,3.8
		c0.4,2.2,0.8,4.4,1.4,6.7l-4.8,6.7l12.3,17.3l7.9-2.4c1.8,1.4,3.6,2.4,5.6,3.6l1.2,8.1l21,3.8l3.8-7.3c2.2-0.4,4.4-0.8,6.7-1.4
		l6.7,4.8l17.3-12.3l-2.4-7.9c1.4-1.8,2.6-3.6,3.6-5.6L102.4,74.3z M51.3,83.8c-15.5-2.6-26-17.5-23.4-33.1s17.5-26,33.1-23.4
		s26,17.5,23.4,33.1C81.8,76.1,66.9,86.4,51.3,83.8z"/>
</g>
</svg>
