<?xml version="1.0" encoding="utf-8"?>
<!-- Generator: Adobe Illustrator 25.2.1, SVG Export Plug-In . SVG Version: 6.00 Build 0)  -->
<svg version="1.1" id="레이어_1" xmlns="http://www.w3.org/2000/svg" xmlns:xlink="http://www.w3.org/1999/xlink" x="0px"
	 y="0px" viewBox="0 0 197 145" style="enable-background:new 0 0 197 145;" xml:space="preserve">
<style type="text/css">
	.st0{fill:#FF8800;}
	.st1{fill:none;stroke:#FF8800;stroke-width:3;stroke-miterlimit:10;}
	.st2{fill:url(#card_1_);stroke:#FF8800;stroke-width:2;stroke-miterlimit:10;}
	.st3{fill:url(#card-2_1_);stroke:#FF8800;stroke-width:2;stroke-miterlimit:10;}
	.st4{fill:#E8DB69;}
	.st5{fill:#4ABC64;}
	.st6{fill:#D14747;}
</style>
<g>
	<rect x="6.5" y="6.5" class="st0" width="185" height="18"/>
	<rect x="6.5" y="6.5" class="st1" width="185.5" height="132.5"/>
	
		<linearGradient id="card_1_" gradientUnits="userSpaceOnUse" x1="-72.5994" y1="320.892" x2="-72.5906" y2="320.7996" gradientTransform="matrix(413 0 0 -360.0055 30028.4004 115572.7891)">
		<stop  offset="0" style="stop-color:#FCB891"/>
		<stop  offset="0.431" style="stop-color:#FFE3B0"/>
		<stop  offset="1" style="stop-color:#FFFBD4"/>
	</linearGradient>
	<path id="card" class="st2" d="M71.1,46.1c0-1.5-1.5-2.4-3.3-2l-44,8.6c-1.1,0.3-1.8,1-1.8,1.8v30.4c0,1.1,1.2,1.9,2.7,1.9h43.7
		c1.5,0,2.7-0.9,2.7-1.9L71.1,46.1L71.1,46.1z"/>
	
		<linearGradient id="card-2_1_" gradientUnits="userSpaceOnUse" x1="-73.5201" y1="320.8944" x2="-73.5113" y2="320.802" gradientTransform="matrix(413 0 0 -360.0055 30471.4004 115573.7891)">
		<stop  offset="0" style="stop-color:#FCDF91"/>
		<stop  offset="0.431" style="stop-color:#FAFFB0"/>
		<stop  offset="1" style="stop-color:#EBFFD4"/>
	</linearGradient>
	<path id="card-2" class="st3" d="M133.9,46.2c0-1.5-1.5-2.4-3.3-2l-44,8.6c-1.1,0.3-1.8,1-1.8,1.8v30.4c0,1.1,1.2,1.9,2.7,1.9h43.7
		c1.5,0,2.7-0.9,2.7-1.9L133.9,46.2L133.9,46.2z"/>
	<line class="st1" x1="21" y1="98.5" x2="72.5" y2="98.5"/>
	<line class="st1" x1="21" y1="111.5" x2="72.5" y2="111.5"/>
	<line class="st1" x1="82.8" y1="98.5" x2="134.3" y2="98.5"/>
	<line class="st1" x1="82.8" y1="111.5" x2="134.3" y2="111.5"/>
	<path class="st4" d="M21.5,19L21.5,19C19,19,17,17,17,14.5v0c0-2.5,2-4.5,4.5-4.5h0c2.5,0,4.5,2,4.5,4.5v0C26,17,24,19,21.5,19z"/>
	<path class="st5" d="M36,19L36,19c-2.5,0-4.5-2-4.5-4.5v0c0-2.5,2-4.5,4.5-4.5h0c2.5,0,4.5,2,4.5,4.5v0C40.5,17,38.5,19,36,19z"/>
	<path class="st6" d="M50.5,19L50.5,19C48,19,46,17,46,14.5v0c0-2.5,2-4.5,4.5-4.5h0c2.5,0,4.5,2,4.5,4.5v0C55,17,53,19,50.5,19z"/>
</g>
</svg>
