<?xml version="1.0" encoding="utf-8"?>
<!-- Generator: Adobe Illustrator 25.2.1, SVG Export Plug-In . SVG Version: 6.00 Build 0)  -->
<svg version="1.1" id="레이어_1" xmlns="http://www.w3.org/2000/svg" xmlns:xlink="http://www.w3.org/1999/xlink" x="0px"
	 y="0px" viewBox="0 0 102 103" style="enable-background:new 0 0 102 103;" xml:space="preserve">
<style type="text/css">
	.st0{fill:#EFFFCA;stroke:#4FAD3E;stroke-width:2;stroke-miterlimit:10;}
</style>
<g>
	<g>
		<path class="st0" d="M99.7,36.7c-0.2-0.9-0.7-1.6-1.5-1.9c-0.8-0.3-1.7-0.2-2.4,0.2L80.2,45.6l-6.7-2.8l-0.2-7.3l15.5-10.6
			c0.7-0.5,1.1-1.3,1.1-2.2c0-0.9-0.5-1.7-1.2-2.1c-8.3-5.3-18.9-5.1-27,0.4c-3.9,2.7-6.9,6.3-8.8,10.7c-1.6,3.7-2.6,9.7-2.3,13.7
			L9.3,73.5c-2.7,1.8-4.5,4.5-5.1,7.7s0.4,4.4,2.2,7.1c1.8,2.7,2.8,3.1,5.9,3.7c3.2,0.6,6.4-0.1,9-1.9L62.9,62
			c3.6,1.8,9.3,4,13.3,3.9c4.7-0.1,9.2-1.6,13.2-4.2C97.5,56.1,101.5,46.3,99.7,36.7z"/>
	</g>
</g>
</svg>
