<svg xmlns="http://www.w3.org/2000/svg" width="236" height="191" viewBox="0 0 236 191"><g transform="translate(-178 -760)"><g transform="translate(3.773)"><rect width="21.368" height="3.324" transform="translate(259.02 836.918) rotate(45)" fill="#fff"/><rect width="21.368" height="3.324" transform="translate(249.789 847.998) rotate(45)" fill="#fff"/><g transform="translate(-299.333 411.697)"><path d="M540.517,394.3a19.734,19.734,0,1,1,.378-39.464,1.661,1.661,0,0,1,1.306,2.65,17.028,17.028,0,0,0-1.069,1.63,16.427,16.427,0,0,0,6.1,22.387h0a16.429,16.429,0,0,0,7.834,2.162,1.661,1.661,0,0,1,1.306,2.649A19.7,19.7,0,0,1,540.517,394.3Zm-2.769-35.9a16.409,16.409,0,1,0,13.9,28.24,19.816,19.816,0,0,1-6.06-2.246h0A19.759,19.759,0,0,1,537.748,358.4Z" fill="#fff"/></g><path d="M596.854,426.779v61.636h20.078V454.2Z" transform="translate(-299.333 411.697)" fill="#fff" opacity="0.5"/><path d="M529.465,422.314H524.46L528,418.775l-1.175-1.175-3.539,3.539v-5.005h-1.662v5.005l-3.539-3.539-1.175,1.175,3.539,3.539h-5.005v1.662h5.005l-3.539,3.539,1.175,1.175,3.539-3.539v5.005h1.662v-5.005l3.539,3.539L528,427.515l-3.539-3.539h5.005Z" transform="translate(-299.333 411.697)" fill="#fff"/><path d="M638.023,374.76h-5.005l3.539-3.539-1.175-1.175-3.539,3.539V368.58H630.18v5.005l-3.539-3.539-1.175,1.175,3.539,3.539H624v1.662h5.005l-3.539,3.539,1.175,1.175,3.539-3.539V382.6h1.662V377.6l3.539,3.539,1.175-1.175-3.539-3.539h5.005Z" transform="translate(-299.333 411.697)" fill="#fff"/><path d="M664.472,418.937h-5.005l3.539-3.539-1.175-1.175-3.539,3.539v-5.005h-1.662v5.006l-3.539-3.539-1.175,1.175,3.539,3.539h-5.005V420.6h5.005l-3.539,3.539,1.175,1.175,3.539-3.539v5.005h1.662v-5.005l3.539,3.539,1.175-1.175-3.539-3.539h5.006Z" transform="translate(-299.333 411.697)" fill="#fff"/><path d="M599.172,380.656l.021-.015-4.071-5.852,3-4.31-2.723-1.9-2.3,3.3-2.3-3.3-2.724,1.9,3,4.31L587,380.641l.006,0L511.56,489.129l2.729,1.9,11.1-15.961v16.674h135.4V475.065l11.1,15.961,2.73-1.9ZM657.46,488.415H642.289L624,463.9l-7.068-9.7v34.214H596.855V407.76h-3.324v80.655H528.713V470.286l64.374-92.56,64.373,92.56Z" transform="translate(-299.333 411.697)" fill="#fff"/></g><rect width="236" height="191" transform="translate(178 760)" fill="none"/><g transform="translate(-830.858 216.396)"><path d="M1059.821,707.419V725.83h7.235v4.264H1054.3V707.419Z" transform="translate(-17.283 -0.222)" fill="#fff"/><path d="M1123.837,707.419h6.266l4.393,9.5,4.361-9.5h6.2l-7.85,15.182v7.494h-5.523V722.6Z" transform="translate(-49.384 -0.222)" fill="#fff"/><path d="M1342.269,707.419h6.525l6.364,15.7,6.3-15.7h6.493v22.675h-5.524V716.5l-5.072,13.6H1352.9l-5.1-13.631v13.631h-5.524Z" transform="translate(-150.217 -0.222)" fill="#fff"/><path d="M1025.805,707.419h-8.947v22.675h5.523v-8.14h3.424c5.781,0,8.333-3.489,8.333-7.236C1034.139,710.552,1031.361,707.419,1025.805,707.419Zm2.1,7.571-4.2,2.595a.591.591,0,0,1-.9-.5v-5.191a.592.592,0,0,1,.9-.5l4.2,2.6A.592.592,0,0,1,1027.91,714.99Z" transform="translate(0 -0.222)" fill="#fff"/><path d="M1406.3,707.328h-8.948V730h5.524v-8.14h3.424c5.782,0,8.333-3.489,8.333-7.236C1414.631,710.461,1411.853,707.328,1406.3,707.328Zm2.1,7.571-4.2,2.6a.591.591,0,0,1-.9-.5V711.8a.591.591,0,0,1,.9-.5l4.2,2.6A.591.591,0,0,1,1408.4,714.9Z" transform="translate(-175.644 -0.18)" fill="#fff"/><g transform="translate(1099.427 707.148)"><path d="M1179.006,707.328a8.747,8.747,0,1,0,8.735,8.736A8.567,8.567,0,0,0,1179.006,707.328Zm0,12.855c-2.288,0-3.709-1.578-3.709-4.119s1.421-4.12,3.709-4.12,3.686,1.578,3.686,4.12C1182.692,718.567,1181.245,720.183,1179.006,720.183Z" transform="translate(-1170.225 -707.328)" fill="#fff"/><path d="M1218.782,707.752v8.672l-5.7-8.672h-4.733v17.106h4.982v-8.633l5.7,8.633h4.732V707.752Z" transform="translate(-1187.823 -707.524)" fill="#fff"/></g><path d="M1267.424,725.455a6.921,6.921,0,1,1,4.046-12.533.268.268,0,0,0,.392-.345,10.615,10.615,0,0,0-9.869-5.639c-6.686,0-11.4,4.781-11.4,11.564s4.716,11.531,11.4,11.531c4.441,0,7.978-2.041,9.812-5.5a.269.269,0,0,0-.4-.339A6.886,6.886,0,0,1,1267.424,725.455Z" transform="translate(-107.896)" fill="#fff"/><path d="M1105.949,727.941l-10.232-20.518-10.395,20.518h-3.649v2.154h27.906v-2.154Zm-13.717,0,3.485-6.879,3.43,6.879Z" transform="translate(-29.92 -0.224)" fill="#fff"/><path d="M1313.268,727.941l-10.232-20.518-10.395,20.518h-3.648v2.154H1316.9v-2.154Zm-10.232-6.879,3.43,6.879h-6.915Z" transform="translate(-125.624 -0.224)" fill="#fff"/><rect width="35.94" height="2.154" transform="translate(1099.427 727.717)" fill="#fff"/></g></g></svg>